<svg width="21" height="21" viewBox="0 0 21 21" fill="none" xmlns="http://www.w3.org/2000/svg">
<path d="M2.33333 17.0625H18.6667C19.2281 17.0625 19.6875 16.6195 19.6875 16.0781C19.6875 15.5367 19.2281 15.0938 18.6667 15.0938H2.33333C1.77188 15.0938 1.3125 15.5367 1.3125 16.0781C1.3125 16.6195 1.77188 17.0625 2.33333 17.0625ZM1.3125 6.23438C1.3125 6.77578 1.77188 7.21875 2.33333 7.21875H18.6667C19.2281 7.21875 19.6875 6.77578 19.6875 6.23438C19.6875 5.69297 19.2281 5.25 18.6667 5.25H2.33333C1.77188 5.25 1.3125 5.69297 1.3125 6.23438ZM2.33333 12.1406H18.6667C19.2281 12.1406 19.6875 11.6977 19.6875 11.1562C19.6875 10.6148 19.2281 10.1719 18.6667 10.1719H2.33333C1.77188 10.1719 1.3125 10.6148 1.3125 11.1562C1.3125 11.6977 1.77188 12.1406 2.33333 12.1406Z" />
</svg>
