<svg width="14" height="18" viewBox="0 0 14 18" stroke="none"  stroke-width="0" fill="none" xmlns="http://www.w3.org/2000/svg">
<path d="M13.53 6L8 0.47C7.85948 0.329308 7.66885 0.250175 7.47 0.25H3C2.27065 0.25 1.57118 0.539731 1.05546 1.05546C0.539731 1.57118 0.25 2.27065 0.25 3V15C0.25 15.7293 0.539731 16.4288 1.05546 16.9445C1.57118 17.4603 2.27065 17.75 3 17.75H11C11.7293 17.75 12.4288 17.4603 12.9445 16.9445C13.4603 16.4288 13.75 15.7293 13.75 15V6.5C13.7421 6.3116 13.6636 6.13309 13.53 6ZM8.25 2.81L11.19 5.75H8.25V2.81ZM11 16.25H3C2.66848 16.25 2.35054 16.1183 2.11612 15.8839C1.8817 15.6495 1.75 15.3315 1.75 15V3C1.75 2.66848 1.8817 2.35054 2.11612 2.11612C2.35054 1.8817 2.66848 1.75 3 1.75H6.75V6.5C6.75259 6.69811 6.83244 6.88737 6.97253 7.02747C7.11263 7.16756 7.30189 7.24741 7.5 7.25H12.25V15C12.25 15.3315 12.1183 15.6495 11.8839 15.8839C11.6495 16.1183 11.3315 16.25 11 16.25Z" />
<path d="M6.63783 7.00004C6.46527 6.99805 6.29738 7.06331 6.1625 7.18481C6.02923 7.31213 5.96837 7.47024 5.9327 7.62895C5.86082 7.94755 5.8818 8.28036 5.94949 8.64751C6.02818 9.07685 6.25746 9.59502 6.44109 10.0907C6.3477 10.5425 6.32356 10.9405 6.17876 11.4042C6.05547 11.8033 5.89807 12.0319 5.75379 12.3854C5.42326 12.5264 5.02976 12.6104 4.76954 12.7928C4.48937 12.9894 4.24383 13.2074 4.09798 13.5153C3.95107 13.8215 3.96681 14.2555 4.16251 14.5694C4.25957 14.7334 4.38654 14.8637 4.556 14.9395C4.72599 15.0153 4.91014 15.0183 5.06492 14.9573C5.37341 14.8377 5.59272 14.5694 5.80206 14.255C5.99618 13.9636 6.13521 13.4685 6.31097 13.0706C6.5754 12.9711 6.76637 12.8455 7.04811 12.7745C7.34402 12.6999 7.54129 12.736 7.81936 12.7005C7.93846 12.8532 8.03971 13.0972 8.16301 13.218C8.41327 13.4626 8.68766 13.658 9.01557 13.6799C9.34401 13.7036 9.67139 13.4727 9.85187 13.1256H9.86866V13.1067C9.94841 12.9486 10.0035 12.7792 9.99983 12.5885C9.99668 12.399 9.91064 12.2012 9.80308 12.071C9.58797 11.8104 9.31358 11.7453 9.0161 11.7008C8.78787 11.6677 8.46783 11.7601 8.19659 11.7755C7.95944 11.4225 7.72282 11.156 7.50771 10.7024C7.39229 10.4572 7.35976 10.2482 7.26217 9.99889C7.3372 9.5962 7.48778 9.14851 7.50771 8.79675C7.5329 8.37037 7.51821 8.00321 7.4096 7.66744C7.35428 7.48818 7.25843 7.32834 7.13153 7.20376C6.99742 7.07806 6.82992 7.00656 6.65567 7.00064H6.63888L6.63783 7.00004ZM6.98201 11.3858C7.07645 11.5729 7.19292 11.692 7.29365 11.8672C7.1457 11.8969 7.03342 11.8661 6.88442 11.904C6.85819 11.9099 6.8435 11.9336 6.81832 11.9413C6.84822 11.8495 6.88757 11.7932 6.91695 11.7002C6.95053 11.5925 6.95053 11.4948 6.98201 11.3858ZM8.91694 12.5879C9.09375 12.6146 9.15566 12.6513 9.17927 12.6626C9.17559 12.672 9.18556 12.6685 9.17927 12.6815C9.11473 12.8029 9.10581 12.7952 9.06384 12.7922C9.02921 12.7899 8.89595 12.7082 8.77003 12.6069C8.80676 12.6104 8.88336 12.5832 8.91694 12.5891V12.5879ZM5.24435 13.5141C5.21549 13.5615 5.19083 13.6752 5.1625 13.7172C5.00248 13.9577 4.85505 14.0702 4.81833 14.0874C4.81151 14.0797 4.82882 14.0874 4.81833 14.0696H4.80154C4.7475 13.9825 4.76376 14.0193 4.80154 13.9393C4.83984 13.86 4.96418 13.7013 5.17929 13.5508C5.19503 13.5402 5.22808 13.5248 5.24435 13.5141Z" />
</svg>
