<svg width="771" height="698" viewBox="0 0 771 698" fill="none" xmlns="http://www.w3.org/2000/svg">
<g clip-path="url(#clip0_1_745)">
<rect width="771" height="698" fill="white"/>
<path d="M670.192 340.525C664.032 335.995 532.407 251.737 532.407 251.737C491.075 227.238 449.743 193.68 449.743 142.798C449.743 91.9168 484.515 59.4998 544.602 59.4998C591.551 59.4998 633.662 68.2519 665.336 77.5656L688.856 199.279H749.233L749.124 42.9742C749.124 42.9742 659.773 -2 544.656 -2C415.296 -2 328.809 72.637 328.809 162.187C328.809 231.696 354.557 288.013 418.703 334.618C441.733 351.361 573.485 435.493 588.779 445.84C626.795 471.552 644.172 493.369 644.172 540.336C644.172 610.371 592.765 635.377 511.623 635.377C475.491 635.377 440.773 628.111 413.883 620.355L389.837 495.851H329.443L329.551 652.011L329.461 652.156C329.461 652.156 393.661 698 516.352 698C651.964 698 770.469 638.294 770.469 503.589C770.469 419.022 716.816 374.845 670.192 340.544V340.525Z" fill="#1B2531"/>
<path d="M329.533 652.011L329.443 495.851H389.837L413.883 620.355C440.791 628.111 475.491 635.377 511.623 635.377C592.765 635.377 644.172 610.371 644.172 540.336C644.172 493.369 626.794 471.57 588.778 445.84C573.485 435.493 441.733 351.343 418.703 334.618C354.557 288.013 328.808 231.696 328.808 162.187C328.808 72.637 415.296 -2 544.656 -2H0V698H516.334C393.642 698 329.443 652.156 329.443 652.156L329.533 652.011Z" fill="#3CACDD"/>
</g>
<defs>
<clipPath id="clip0_1_745">
<rect width="771" height="698" fill="white"/>
</clipPath>
</defs>
</svg>
